<?xml version="1.0" encoding="UTF-8" standalone="no"?>
<svg
   width="298.707"
   height="226.55701"
   viewBox="0 0 298.707 226.557"
   version="1.1"
   id="svg163"
   sodipodi:docname="OpenDIAKiosk_logo_portrait.svg"
   inkscape:version="1.2.2 (b0a8486541, 2022-12-01)"
   inkscape:export-filename="OpenDIAKiosk_logo_portrait.png"
   inkscape:export-xdpi="200"
   inkscape:export-ydpi="200"
   xmlns:inkscape="http://www.inkscape.org/namespaces/inkscape"
   xmlns:sodipodi="http://sodipodi.sourceforge.net/DTD/sodipodi-0.dtd"
   xmlns="http://www.w3.org/2000/svg"
   xmlns:svg="http://www.w3.org/2000/svg">
  <sodipodi:namedview
     id="namedview165"
     pagecolor="#ffffff"
     bordercolor="#666666"
     borderopacity="1.0"
     inkscape:showpageshadow="2"
     inkscape:pageopacity="0.0"
     inkscape:pagecheckerboard="0"
     inkscape:deskcolor="#d1d1d1"
     showgrid="false"
     inkscape:zoom="2.4205129"
     inkscape:cx="271.01695"
     inkscape:cy="116.0911"
     inkscape:window-width="2544"
     inkscape:window-height="1327"
     inkscape:window-x="20"
     inkscape:window-y="20"
     inkscape:window-maximized="0"
     inkscape:current-layer="svg163" />
  <defs
     id="defs5">
    <clipPath
       id="bg-clip">
      <circle
         cx="98"
         cy="97"
         r="72"
         id="circle2" />
    </clipPath>
  </defs>
  <circle
     cx="140.88289"
     cy="82"
     r="79"
     fill="#1d9e75"
     id="circle7" />
  <g
     clip-path="url(#bg-clip)"
     id="g27"
     transform="translate(42.882883,-15)">
    <rect
       x="26"
       y="26"
       width="144"
       height="142"
       fill="#0f6e56"
       id="rect11" />
    <rect
       x="26"
       y="90"
       width="144"
       height="26"
       fill="#ef9f27"
       opacity="0.16"
       id="rect13" />
    <g
       stroke="#ffffff"
       stroke-width="0.5"
       opacity="0.15"
       id="g21">
      <line
         x1="74"
         y1="26"
         x2="74"
         y2="168"
         id="line15" />
      <line
         x1="118"
         y1="26"
         x2="118"
         y2="168"
         id="line17" />
      <line
         x1="162"
         y1="26"
         x2="162"
         y2="168"
         id="line19" />
    </g>
    <line
       x1="30"
       y1="156"
       x2="168"
       y2="156"
       stroke="#ffffff"
       stroke-width="1"
       opacity="0.38"
       id="line23" />
    <line
       x1="30"
       y1="28"
       x2="30"
       y2="156"
       stroke="#ffffff"
       stroke-width="1"
       opacity="0.38"
       id="line25" />
  </g>
  <!-- Cycle 1: x 35, 46, 57, 68 -->
  <!-- Cycle 2: x 78, 89, 100, 111 -->
  <g
     opacity="0.42"
     id="g71"
     transform="matrix(-1,0,0,1,231.88288,-15)">
    <line
       x1="78"
       y1="53"
       x2="78"
       y2="39"
       stroke="#ffffff"
       stroke-width="1.4"
       id="line65" />
    <polygon
       points="75,53 81,53 78,59 "
       fill="#ffffff"
       id="polygon67" />
    <polygon
       points="75,39 81,39 78,33 "
       fill="#ffffff"
       id="polygon69" />
  </g>
  <g
     opacity="0.6"
     id="g79"
     transform="matrix(-1,0,0,1,231.88288,-15)">
    <line
       x1="89"
       y1="82"
       x2="89"
       y2="68"
       stroke="#ffffff"
       stroke-width="1.4"
       id="line73" />
    <polygon
       points="86,82 92,82 89,88 "
       fill="#ffffff"
       id="polygon75" />
    <polygon
       points="86,68 92,68 89,62 "
       fill="#ffffff"
       id="polygon77" />
  </g>
  <g
     opacity="0.96"
     id="g87"
     transform="matrix(-1,0,0,1,231.88288,-15)">
    <line
       x1="100"
       y1="110"
       x2="100"
       y2="96"
       stroke="#ef9f27"
       stroke-width="1.7"
       id="line81" />
    <polygon
       points="97,110 103,110 100,116 "
       fill="#ef9f27"
       id="polygon83" />
    <polygon
       points="97,96 103,96 100,90 "
       fill="#ef9f27"
       id="polygon85" />
  </g>
  <g
     opacity="0.8"
     id="g95"
     transform="matrix(-1,0,0,1,231.88288,-15)">
    <line
       x1="111"
       y1="138"
       x2="111"
       y2="124"
       stroke="#ffffff"
       stroke-width="1.4"
       id="line89" />
    <polygon
       points="108,138 114,138 111,144 "
       fill="#ffffff"
       id="polygon91" />
    <polygon
       points="108,124 114,124 111,118 "
       fill="#ffffff"
       id="polygon93" />
  </g>
  <!-- Cycle 3: x 121, 132, 143, 154 -->
  <g
     opacity="0.42"
     id="g103"
     transform="matrix(-1,0,0,1,317.88288,-15)">
    <line
       x1="121"
       y1="53"
       x2="121"
       y2="39"
       stroke="#ffffff"
       stroke-width="1.4"
       id="line97" />
    <polygon
       points="118,53 124,53 121,59 "
       fill="#ffffff"
       id="polygon99" />
    <polygon
       points="118,39 124,39 121,33 "
       fill="#ffffff"
       id="polygon101" />
  </g>
  <g
     opacity="0.6"
     id="g111"
     transform="matrix(-1,0,0,1,317.88288,-15)">
    <line
       x1="132"
       y1="82"
       x2="132"
       y2="68"
       stroke="#ffffff"
       stroke-width="1.4"
       id="line105" />
    <polygon
       points="129,82 135,82 132,88 "
       fill="#ffffff"
       id="polygon107" />
    <polygon
       points="129,68 135,68 132,62 "
       fill="#ffffff"
       id="polygon109" />
  </g>
  <g
     opacity="0.96"
     id="g119"
     transform="matrix(-1,0,0,1,317.88288,-15)">
    <line
       x1="143"
       y1="110"
       x2="143"
       y2="96"
       stroke="#ef9f27"
       stroke-width="1.7"
       id="line113" />
    <polygon
       points="140,110 146,110 143,116 "
       fill="#ef9f27"
       id="polygon115" />
    <polygon
       points="140,96 146,96 143,90 "
       fill="#ef9f27"
       id="polygon117" />
  </g>
  <g
     opacity="0.8"
     id="g127"
     transform="matrix(-1,0,0,1,317.88288,-15)">
    <line
       x1="154"
       y1="138"
       x2="154"
       y2="124"
       stroke="#ffffff"
       stroke-width="1.4"
       id="line121" />
    <polygon
       points="151,138 157,138 154,144 "
       fill="#ffffff"
       id="polygon123" />
    <polygon
       points="151,124 157,124 154,118 "
       fill="#ffffff"
       id="polygon125" />
  </g>
  <g
     opacity="0.8"
     id="g127-8"
     transform="matrix(-1,0,0,1,362.11613,-15.110436)">
    <path
       id="polygon125-2"
       style="fill:#ffffff"
       d="M 154.44588,124 H 154.41612 157 l -3,-6 -1.02364,2.04729 z"
       sodipodi:nodetypes="cccccc" />
  </g>
  <!-- Cycle 4 partial overflow: x 164, 175, 186 -->
  <text
     y="185.43744"
     dominant-baseline="central"
     font-size="44px"
     font-family="sans-serif"
     id="text159"
     x="-218.261"><tspan
       x="-0.26099992"
       fill="#2c2c2a"
       font-weight="400"
       id="tspan153">Open</tspan><tspan
       fill="#1d9e75"
       font-weight="500"
       id="tspan155">DIA</tspan><tspan
       fill="#2c2c2a"
       font-weight="400"
       id="tspan157">Kiosk</tspan></text>
  <text
     x="0.73899996"
     y="222.43744"
     font-size="13px"
     font-family="sans-serif"
     fill="#888780"
     id="text161">Data-Independent Acquisition Information Hub</text>
  <g
     opacity="0.42"
     id="g71-3"
     transform="matrix(-1,0,0,1,190.59563,-14.70367)">
    <line
       x1="78"
       y1="53"
       x2="78"
       y2="39"
       stroke="#ffffff"
       stroke-width="1.4"
       id="line65-6" />
    <polygon
       points="78,59 75,53 81,53 "
       fill="#ffffff"
       id="polygon67-7" />
    <polygon
       points="78,33 75,39 81,39 "
       fill="#ffffff"
       id="polygon69-5" />
  </g>
  <g
     opacity="0.6"
     id="g79-3"
     transform="matrix(-1,0,0,1,190.59563,-14.70367)">
    <line
       x1="89"
       y1="82"
       x2="89"
       y2="68"
       stroke="#ffffff"
       stroke-width="1.4"
       id="line73-5" />
    <polygon
       points="89,88 86,82 92,82 "
       fill="#ffffff"
       id="polygon75-6" />
    <polygon
       points="89,62 86,68 92,68 "
       fill="#ffffff"
       id="polygon77-2" />
  </g>
  <g
     opacity="0.96"
     id="g87-9"
     transform="matrix(-1,0,0,1,190.59563,-14.70367)">
    <line
       x1="100"
       y1="110"
       x2="100"
       y2="96"
       stroke="#ef9f27"
       stroke-width="1.7"
       id="line81-1" />
    <polygon
       points="100,116 97,110 103,110 "
       fill="#ef9f27"
       id="polygon83-2" />
    <polygon
       points="100,90 97,96 103,96 "
       fill="#ef9f27"
       id="polygon85-7" />
  </g>
  <g
     opacity="0.8"
     id="g95-0"
     transform="matrix(-1,0,0,1,190.59563,-14.70367)">
    <g
       id="line89-9">
      <path
         style="color:#000000;fill:#000000;stroke-width:1.4;-inkscape-stroke:none"
         d="M 111,138 V 124"
         id="path1096" />
      <path
         style="color:#000000;fill:#ffffff;-inkscape-stroke:none"
         d="m 110.30078,124 v 11.6394 l 1.39844,-2.25944 V 124 Z"
         id="path1098"
         sodipodi:nodetypes="ccccc" />
    </g>
    <polygon
       points="111,118 108,124 114,124 "
       fill="#ffffff"
       id="polygon93-6" />
  </g>
  <circle
     cx="140.88289"
     cy="82"
     r="74"
     fill="none"
     stroke="#ffffff"
     stroke-width="0.6"
     opacity="0.16"
     id="circle31" />
  <circle
     cx="140.88289"
     cy="82"
     r="79"
     fill="none"
     stroke="#085041"
     stroke-width="2"
     id="circle9" />
</svg>
