<?xml version="1.0" encoding="UTF-8" standalone="no"?>
<svg
   width="280.40906"
   height="91.301414"
   viewBox="0 0 280.40906 91.301414"
   fill="none"
   version="1.1"
   id="svg2"
   sodipodi:docname="LiBiS-Logo.svg"
   xmlns:inkscape="http://www.inkscape.org/namespaces/inkscape"
   xmlns:sodipodi="http://sodipodi.sourceforge.net/DTD/sodipodi-0.dtd"
   xmlns="http://www.w3.org/2000/svg"
   xmlns:svg="http://www.w3.org/2000/svg">
  <defs
     id="defs2" />
  <sodipodi:namedview
     id="namedview2"
     pagecolor="#ffffff"
     bordercolor="#666666"
     borderopacity="1.0"
     inkscape:showpageshadow="2"
     inkscape:pageopacity="0.0"
     inkscape:pagecheckerboard="0"
     inkscape:deskcolor="#d1d1d1">
    <inkscape:page
       x="0"
       y="0"
       width="280.40906"
       height="91.301414"
       id="page2"
       margin="0"
       bleed="0" />
  </sodipodi:namedview>
  <path
     d="m 22.517562,74.939425 c 0,3.0977 1.4694,4.6465 4.4082,4.6465 h 13.5821 c 2.7799,0 4.6861,-0.5163 5.7187,-1.5488 1.0326,-1.0326 1.8268,-3.2565 2.3828,-6.6719 0.3971,-2.5417 2.224,-3.6536 5.4805,-3.3359 3.3359,0.2383 5.0039,1.5091 5.0039,3.8125 l -0.834,18.4668 h -50.7539 v -73.0332 c 0,-2.5417 -0.19857,-4.17 -0.59571,-4.8848 -0.3177,-0.7943 -0.75455,-1.2708 -1.31054,-1.4297 -1.50912,-0.3971 -2.81966,-0.8737 -3.93164,-1.4297 C 0.55599203,8.975265 3.1328538e-8,7.942705 3.1328538e-8,6.433595 3.1328538e-8,3.891925 1.667972,2.621095 5.003902,2.621095 h 12.62896 c 3.2565,0 4.8847,1.27083 4.8847,3.8125 z m 108.394498,-58.498 v 22.3984 h 10.484 c 4.051,0 7.268,-0.9928 9.65,-2.9785 2.463,-2.0651 3.694,-5.5202 3.694,-10.3652 0,-4.2891 -1.39,-7.5456 -4.17,-9.7696 -2.701,-2.2239 -6.037,-3.3359 -10.008,-3.3359 h -5.361 c -2.86,0 -4.289,1.3503 -4.289,4.0508 z m 0,59.8086 c 0,2.7799 1.469,4.1699 4.408,4.1699 h 5.599 c 5.004,0 9.174,-1.2311 12.51,-3.6934 3.416,-2.4622 5.123,-6.1556 5.123,-11.08 0,-5.8776 -1.628,-10.0873 -4.884,-12.6289 -3.178,-2.6211 -7.189,-3.9317 -12.034,-3.9317 h -10.722 z m 12.033,14.0586 h -26.807 v -73.1524 c 0,-2.4622 -0.238,-4.0905 -0.715,-4.8847 -0.397,-0.7943 -0.953,-1.3106 -1.668,-1.5489 -1.509,-0.4765 -2.66,-1.0325 -3.455,-1.66794 -0.715,-0.63541 -1.072,-1.58854 -1.072,-2.85937 0,-2.46224 1.35,-3.69336 4.051,-3.69336 h 28.594 c 8.895,0 15.806,1.94596 20.73,5.83789 5.004,3.81248 7.506,9.17378 7.506,16.08398 0,4.9245 -1.271,9.1341 -3.813,12.6289 -2.462,3.4154 -4.805,5.4408 -7.029,6.0762 3.415,0.7943 6.712,3.1771 9.889,7.1484 3.177,3.8919 4.765,9.015 4.765,15.3692 0,7.3073 -2.541,13.2643 -7.625,17.8711 -5.083,4.5273 -12.867,6.791 -23.351,6.791 z m 121.738,-24.6621 c -0.239,-3.336 -1.629,-6.2748 -4.17,-8.8164 -2.542,-2.6211 -6.632,-5.4408 -12.272,-8.459 -6.513,-3.1771 -11.477,-6.791 -14.892,-10.8418 -3.416,-4.1302 -5.084,-9.2533 -5.004,-15.3692 0.159,-6.0364 2.542,-11.08 7.148,-15.13083 4.607,-4.05078 10.802,-6.07617 18.586,-6.07617 4.21,0 8.022,0.31771 11.438,0.95312 3.415,0.63542 6.791,1.54883 10.127,2.74024 v 12.50974 c -4.528,-2.3828 -8.539,-3.9713 -12.034,-4.7656 -3.494,-0.7943 -6.513,-1.1914 -9.054,-1.1914 -2.542,0 -4.964,0.9928 -7.268,2.9785 -2.303,1.9063 -3.455,4.7259 -3.455,8.459 0,3.3359 1.39,6.3144 4.17,8.9355 2.859,2.5417 7.387,5.4805 13.582,8.8164 6.275,3.336 10.961,7.0691 14.059,11.1993 3.177,4.0507 4.765,8.8164 4.765,14.2968 0,6.7513 -2.422,12.5495 -7.267,17.3946 -4.766,4.845 -11.835,7.5058 -21.207,7.9824 -3.495,0.1588 -7.188,-0.1589 -11.08,-0.9531 -3.892,-0.8737 -7.069,-2.1048 -9.532,-3.6934 -1.588,-0.9531 -2.621,-2.1048 -3.097,-3.4551 -0.477,-1.3502 -0.477,-2.8196 0,-4.4082 0.715,-1.5885 2.025,-2.6211 3.931,-3.0976 1.907,-0.556 4.091,-0.0795 6.553,1.4297 1.668,0.7942 3.773,1.5488 6.315,2.2636 2.541,0.6354 4.725,0.9134 6.552,0.834 4.448,-0.3971 7.864,-1.9062 10.246,-4.5273 2.383,-2.6211 3.336,-5.9571 2.86,-10.0078 z"
     fill="#043A70"
     id="path1"
     style="fill:#ffffff;fill-opacity:1" />
  <path
     d="m 90.356262,90.308625 h -14.8926 v -47.7754 c 0,-2.4623 -0.1986,-4.1302 -0.5957,-5.0039 -0.3971,-0.8737 -0.834,-1.4297 -1.3105,-1.668 -1.4297,-0.3971 -2.502,-0.8737 -3.2168,-1.4297 -0.7149,-0.556 -1.0723,-1.39 -1.0723,-2.5019 0,-2.7006 1.7077,-4.0508 5.123,-4.0508 h 10.8418 c 3.4154,0 5.1231,1.4297 5.1231,4.289 z m 0.4765,-80.89652 c 0,2.54172 -0.9134,4.72592 -2.7402,6.55272 -1.7474,1.7474 -3.8919,2.6211 -6.4336,2.6211 -2.5416,0 -4.6862,-0.8737 -6.4336,-2.6211 -1.7474,-1.8268 -2.6211,-4.011 -2.6211,-6.55272 0,-2.54166 0.8737,-4.72591 2.6211,-6.55273 C 76.972762,0.953125 79.117362,0 81.658962,0 c 2.5417,0 4.6862,0.953125 6.4336,2.859375 1.8268,1.82682 2.7402,4.01107 2.7402,6.55273 z m 118.283298,80.89652 h -14.893 v -47.7754 c 0,-2.4623 -0.199,-4.1302 -0.596,-5.0039 -0.397,-0.8737 -0.834,-1.4297 -1.31,-1.668 -1.43,-0.3971 -2.502,-0.8737 -3.217,-1.4297 -0.715,-0.556 -1.072,-1.39 -1.072,-2.5019 0,-2.7006 1.707,-4.0508 5.123,-4.0508 h 10.842 c 3.415,0 5.123,1.4297 5.123,4.289 z m 0.476,-80.89652 c 0,2.54172 -0.913,4.72592 -2.74,6.55272 -1.747,1.7474 -3.892,2.6211 -6.434,2.6211 -2.541,0 -4.686,-0.8737 -6.433,-2.6211 -1.748,-1.8268 -2.621,-4.011 -2.621,-6.55272 0,-2.54166 0.873,-4.72591 2.621,-6.55273 1.747,-1.90625 3.892,-2.859375 6.433,-2.859375 2.542,0 4.687,0.953125 6.434,2.859375 1.827,1.82682 2.74,4.01107 2.74,6.55273 z"
     fill="#F9B023"
     id="path2"
     style="fill:#ffffff;fill-opacity:1"
     inkscape:export-filename="elixir-logo-white.svg"
     inkscape:export-xdpi="199"
     inkscape:export-ydpi="199" />
</svg>
