<svg xmlns="http://www.w3.org/2000/svg" viewBox="0 0 800 600" role="img" aria-labelledby="community-welcome-title community-welcome-desc">
  <title id="community-welcome-title">OpenMS community</title>
  <desc id="community-welcome-desc">Illustration of researchers and developers connected in a welcoming global community.</desc>
  <defs>
    <linearGradient id="bg" x1="0%" y1="0%" x2="100%" y2="100%">
      <stop offset="0%" stop-color="#e8f1fb"/>
      <stop offset="55%" stop-color="#f4f0fb"/>
      <stop offset="100%" stop-color="#fdf4f8"/>
    </linearGradient>
    <linearGradient id="accent" x1="0%" y1="0%" x2="100%" y2="0%">
      <stop offset="0%" stop-color="#2d6cdf"/>
      <stop offset="100%" stop-color="#7b4fd4"/>
    </linearGradient>
    <linearGradient id="peak" x1="0%" y1="100%" x2="0%" y2="0%">
      <stop offset="0%" stop-color="#2d6cdf" stop-opacity="0.15"/>
      <stop offset="100%" stop-color="#7b4fd4" stop-opacity="0.35"/>
    </linearGradient>
    <filter id="soft" x="-20%" y="-20%" width="140%" height="140%">
      <feDropShadow dx="0" dy="10" stdDeviation="16" flood-color="#1a2b4a" flood-opacity="0.12"/>
    </filter>
  </defs>
  <rect width="800" height="600" rx="32" fill="url(#bg)"/>
  <g opacity="0.55">
    <path d="M120 430 L170 280 L220 340 L270 220 L320 300 L370 180 L420 260 L470 200 L520 280 L570 240 L620 320 L680 430 Z" fill="url(#peak)"/>
    <path d="M120 430 L170 280 L220 340 L270 220 L320 300 L370 180 L420 260 L470 200 L520 280 L570 240 L620 320 L680 430 Z" fill="none" stroke="#7b4fd4" stroke-opacity="0.22" stroke-width="3"/>
  </g>
  <circle cx="400" cy="300" r="148" fill="#ffffff" fill-opacity="0.72"/>
  <circle cx="400" cy="300" r="148" fill="none" stroke="url(#accent)" stroke-opacity="0.18" stroke-width="2"/>
  <g stroke="#2d6cdf" stroke-opacity="0.22" stroke-width="3" fill="none">
    <path d="M400 300 L280 210"/>
    <path d="M400 300 L520 210"/>
    <path d="M400 300 L250 360"/>
    <path d="M400 300 L550 360"/>
    <path d="M400 300 L400 150"/>
  </g>
  <g filter="url(#soft)">
    <g transform="translate(400 300)">
      <circle r="54" fill="#ffffff"/>
      <circle r="54" fill="none" stroke="url(#accent)" stroke-width="3"/>
      <circle cy="-12" r="16" fill="#1a2b4a"/>
      <path d="M-28 30 C-28 8 -12 0 0 0 C12 0 28 8 28 30 Z" fill="#1a2b4a"/>
    </g>
    <g transform="translate(280 210)">
      <circle r="42" fill="#ffffff"/>
      <circle r="42" fill="none" stroke="#2d6cdf" stroke-opacity="0.35" stroke-width="2"/>
      <circle cy="-10" r="13" fill="#2d6cdf"/>
      <path d="M-22 24 C-22 6 -10 0 0 0 C10 0 22 6 22 24 Z" fill="#2d6cdf"/>
    </g>
    <g transform="translate(520 210)">
      <circle r="42" fill="#ffffff"/>
      <circle r="42" fill="none" stroke="#7b4fd4" stroke-opacity="0.35" stroke-width="2"/>
      <circle cy="-10" r="13" fill="#7b4fd4"/>
      <path d="M-22 24 C-22 6 -10 0 0 0 C10 0 22 6 22 24 Z" fill="#7b4fd4"/>
    </g>
    <g transform="translate(250 360)">
      <circle r="38" fill="#ffffff"/>
      <circle r="38" fill="none" stroke="#e85d9a" stroke-opacity="0.35" stroke-width="2"/>
      <circle cy="-9" r="12" fill="#e85d9a"/>
      <path d="M-20 22 C-20 6 -9 0 0 0 C9 0 20 6 20 22 Z" fill="#e85d9a"/>
    </g>
    <g transform="translate(550 360)">
      <circle r="38" fill="#ffffff"/>
      <circle r="38" fill="none" stroke="#f0a500" stroke-opacity="0.45" stroke-width="2"/>
      <circle cy="-9" r="12" fill="#f0a500"/>
      <path d="M-20 22 C-20 6 -9 0 0 0 C9 0 20 6 20 22 Z" fill="#f0a500"/>
    </g>
    <g transform="translate(400 150)">
      <circle r="36" fill="#ffffff"/>
      <circle r="36" fill="none" stroke="#2d6cdf" stroke-opacity="0.35" stroke-width="2"/>
      <circle cy="-8" r="11" fill="#1a2b4a"/>
      <path d="M-18 20 C-18 5 -8 0 0 0 C8 0 18 5 18 20 Z" fill="#1a2b4a"/>
    </g>
  </g>
  <g transform="translate(118 118)">
    <rect width="92" height="72" rx="14" fill="#ffffff" filter="url(#soft)"/>
    <path d="M28 24h36v8H28zm0 16h28v8H28zm0 16h20v8H28z" fill="#2d6cdf" fill-opacity="0.75"/>
  </g>
  <g transform="translate(590 118)">
    <rect width="92" height="72" rx="14" fill="#ffffff" filter="url(#soft)"/>
    <path d="M30 36h32v6H30zm0 14h24v6H30z" fill="#7b4fd4" fill-opacity="0.8"/>
    <rect x="30" y="24" width="32" height="6" rx="3" fill="#7b4fd4" fill-opacity="0.45"/>
  </g>
  <g transform="translate(118 430)">
    <rect width="92" height="72" rx="14" fill="#ffffff" filter="url(#soft)"/>
    <path d="M28 40c0-10 8-18 18-18s18 8 18 18" fill="none" stroke="#e85d9a" stroke-width="4" stroke-linecap="round"/>
    <circle cx="46" cy="40" r="8" fill="#e85d9a"/>
  </g>
  <g transform="translate(590 430)">
    <rect width="92" height="72" rx="14" fill="#ffffff" filter="url(#soft)"/>
    <path d="M30 48 L46 30 L62 48" fill="none" stroke="#2d6cdf" stroke-width="4" stroke-linecap="round" stroke-linejoin="round"/>
    <rect x="30" y="48" width="32" height="8" rx="2" fill="#2d6cdf" fill-opacity="0.7"/>
  </g>
</svg>
